<svg xmlns="http://www.w3.org/2000/svg" viewBox="0 0 1583.55 577.87"><defs><style>.cls-1{fill:#fff;}</style></defs><g id="Capa_2" data-name="Capa 2"><g id="Capa_1-2" data-name="Capa 1"><path class="cls-1" d="M533.17,357.61c-.4,3.47-.29,5.91-1,8.07-2.91,8.67-8.78,15.31-15.74,20.86-2.09,1.66-5.4,2.43-8.17,2.48-43,.79-86.07,1.56-129.11,1.93-10.84.09-21.72-1-32.53-2-4.12-.39-6.58.13-8.7,4.11-19.58,36.79-39.47,73.41-59,110.21-3.81,7.18-6.59,14.91-9.7,22.45a33.4,33.4,0,0,0-1.79,6.55c-2.52,13.28,2.88,21.81,16.09,24.3,6.62,1.25,13.49,1.13,20.22,1.91,2.24.26,4.38,1.4,6.57,2.14-.86,2.17-1.25,4.74-2.67,6.46-5.24,6.31-11.74,11-20.32,10.79q-39-.87-78.09-2.29a39,39,0,0,1-10.6-2.28c-6.07-2-8.5-5.76-7.08-12a45.87,45.87,0,0,1,5.19-13.18c15-25.06,29.64-50.4,45.67-74.8,22.91-34.89,44.05-70.81,64.19-107.3,21-38.08,41.39-76.52,61.66-115,7.07-13.41,13.09-27.38,19.42-41.17,3.56-7.78,1.75-11.07-6.72-11.7-10.16-.77-20.37-.85-30.54-1.54-2.19-.15-4.29-1.6-6.42-2.45,1-2.57,1.42-5.79,3.23-7.56a46.49,46.49,0,0,1,11-7.87,17.55,17.55,0,0,1,8.39-1.48c46.91,1.24,93.83,1.88,140.66-1.89,29.17-2.35,58.14-6.36,86.45-14,8.72-2.37,17.1-5.94,25.72-8.71,1.9-.61,4.14-.14,6.22-.17-.59,2-.89,4.19-1.84,6-2.4,4.6-5,9.13-7.71,13.54-2.86,4.59-5.55,9.4-9.13,13.38-5.39,6-11.75,9.76-20.65,9.84-29,.29-58,1.38-87,2.23-14.72.43-29.44,1.26-44.16,1.39-5.46,0-8.79,2-11.45,6.61-10.57,18.48-21.59,36.71-32,55.27-17.1,30.41-33.86,61-50.79,91.52-3.13,5.65-2.83,7.68,3,10.86,10,5.45,21.13,7.12,32.16,7.61,42.27,1.89,84.27-.57,125.68-9.95C525,360,528.24,359,533.17,357.61Z"/><path class="cls-1" d="M232.37,105.44c-27.89-12.59-32.13-36.9-18.64-58.27,10.15-16,26.08-23.32,42.93-29.21,22.86-8,46.71-11.65,70.68-13.1C366.24,2.51,405.22,1.65,444.16,0c8.73-.37,13.69,6,19.84,10.29.91.63,1.36,3.13.85,4.21s-2.51,1.74-3.87,1.77c-4.07.1-8.15-.2-12.22-.36-6.91-.28-12.09,2.56-16.23,8.13-13.84,18.62-25.1,38.79-35.93,59.23-31,58.48-62.76,116.51-98.42,172.33C269,301.34,232.48,340,186.79,369.42c-41,26.4-86.13,37.67-134.87,32-16.5-1.93-32.58-5.85-45.95-16.94-4-3.28-6.43-6.52-5.9-12,.87-9,.94-18.11,1.68-27.14.53-6.42,2.37-7.1,7.72-3.84,6.6,4,11.09,9,13.36,17,3.72,13.12,12.44,21.46,26.83,23.54,42.55,6.15,81.14-1.92,114.46-30.34,25.55-21.79,46.8-47.36,65.72-74.93C277,208,317.58,135.45,355.38,61.29q9.4-18.48,18.44-37.15c.81-1.66.74-3.76,1.08-5.66a31.88,31.88,0,0,0-5.63-.56c-27.21,2.1-54,6.82-79.9,15.42a161,161,0,0,0-25.72,10.59c-18.5,10-29.82,25.39-32.16,46.66-.34,3.1.2,6.29.38,9.44C232,101.7,232.18,103.37,232.37,105.44Z"/><path class="cls-1" d="M1157.47,315.58c.75,3.33,1.37,6,2.16,9.58h-13.09c.44,5.83,1.89,11.23,1,16.2-1.61,8.71-12,16.08-21.88,16.42-4,.14-8-.8-12-1-1.7-.08-3.8,0-5.08.84-2,1.42-3.46,3.61-5.15,5.48,2,1.52,3.73,4,5.9,4.39,5.46,1,11.09,1,16.65,1.54,7.31.69,14.57,1.39,20.88,5.9,6.92,4.94,10.09,11.52,8,19.68-2.52,9.83-8.1,17.09-18.28,20.5a50.27,50.27,0,0,1-29,1.09c-8.35-2.14-14.42-7.22-16-16.05-1.51-8.39,1.77-15.34,8-20.95a16.71,16.71,0,0,1,2.74-1.69c-8-9.26-7.46-13.5,2.61-23.47-1.68-2.55-3.77-5-5-7.73-6.87-15.38,7-28.82,18.47-30.23,6.46-.8,13.08-.52,18.88,3.21,3.8,2.45,7.33,2.55,11.25.16C1150.9,318,1153.73,317.16,1157.47,315.58Zm-32.21,95.61c.9,0,1.81,0,2.71,0,8-.33,15.68-6.73,16.44-13.72.92-8.46-2.73-13.06-13.14-15a218.72,218.72,0,0,0-23.17-2.65c-1.43-.12-3.92,1-4.34,2.2-1.92,5.26-2.87,10.65-.64,16.26C1107.16,408.44,1115.85,410.35,1125.26,411.19Zm11.7-72.52c-1.15-3.55-1.92-7.29-3.52-10.62-2.63-5.46-8.85-8.09-14.8-6.84a12.17,12.17,0,0,0-9.75,12.54,33.07,33.07,0,0,0,1.87,10.44,13.43,13.43,0,0,0,15.81,8.36C1132.17,351,1137.37,345,1137,338.67Z"/><path class="cls-1" d="M856.8,377.9v3.77H816.88c-.74-2.85.81-3.72,3.61-4.66,8.38-2.83,8.32-3,8.33-11.93V291.71c-2.93-5.2-11.05-2.12-12.6-9.88,4.71.56,8.62,1.37,12.54,1.42,14,.16,28.11.08,42.16,0a28.17,28.17,0,0,0,5.34-.59c9.28-1.82,8.47-.8,10.71,7.16.66,2.33.56,4.86,1,7.27s1,4.65,1.55,7.06c-3.58,1.54-4.09-1.28-5.53-3.18-2.76-3.63-5.56-7.42-9.05-10.27-2-1.64-5.39-2.06-8.19-2.15-7.88-.28-15.78-.1-24.11-.1v41.05c7.27,0,14.44.18,21.61-.06,4.43-.15,5.87-3.88,6.61-7.38.57-2.7.8-5,4.66-4.56v30.51c-3,.66-3.92-.77-4.6-3.76-1.61-7.08-3.3-8.17-10.72-8.18-5.65,0-11.3,0-18,0v17c0,5,.09,10,0,15-.1,4.42,1,7.45,6.19,7.86C851.14,376.15,853.9,377.2,856.8,377.9Z"/><path class="cls-1" d="M1236.33,155.69c-1.34-1.43-3.12-2.65-3.93-4.34-4.35-9.07-11.1-13.46-21.43-12.6-6.49.54-13.07.1-20.08.1v41c7.41,0,14.82.39,22.17-.15,4.07-.3,5.21-4.24,6.27-7.82.51-1.71,2-3.15,3-4.72l1.44.7V198.4c-2.88.7-3.89-.68-4.58-3.68-1.7-7.25-3.22-8.24-10.66-8.25-5.65,0-11.31,0-18.09,0v8.76c0,7.26,0,14.51,0,21.76,0,7.46,0,7.46,7.42,9.41,2.34.62,4.69,1.21,7.41,1.91-.14,1.37-.29,2.8-.39,3.73H1165.1c-.69-3.6,1.65-3.92,4.23-4.76,7.61-2.47,7.74-2.89,7.74-11.07q0-34.35,0-68.69c0-7.23-.65-8.33-7.82-9.9-2.89-.63-4.76-1.25-4-5.33,3.67.46,7.34,1.29,11,1.33,14.51.15,29,.08,43.53,0a20.92,20.92,0,0,0,4.67-.55c7.9-1.88,9.82-.64,10.84,7,.64,4.78,1.36,9.55,2,14.33Z"/><path class="cls-1" d="M887.24,169.57l24.31-3.51c-.55,5.23-1,9.74-1.5,14.2,5.7-4.08,10.76-8.67,16.63-11.71,12.82-6.64,26.76.3,27,16.46.17,11.55.18,23.1,0,34.65-.08,4.31.41,7.44,5.57,8.08,1.58.19,3,1.8,4.46,2.77-.19.5-.39,1-.59,1.51H932.55l-.77-1.06c1.72-1.14,3.3-2.88,5.18-3.29,3.9-.86,4.89-3,4.83-6.69-.18-10.19.08-20.39-.15-30.57a32.84,32.84,0,0,0-1.86-9.08c-1.23-3.82-4.24-5.46-8.18-5.76a19.8,19.8,0,0,0-21.42,19.8c0,9.06,0,18.12,0,27.17V225l9.94,5.52L919.5,232H889l-.7-1.19c1.77-1.1,3.41-2.69,5.34-3.21,3.73-1,4.75-3.09,4.68-6.8-.2-12.68,0-25.37-.08-38,0-7.65-.26-7.87-7.82-10a7,7,0,0,1-2.26-1.28C887.81,171.26,887.74,170.72,887.24,169.57Z"/><path class="cls-1" d="M1068,224.7c2.69,3.83,8.81,1.58,9.51,7.32h-30.8l-.66-1.48,10-5.46c0-14.73,0-29.66,0-44.59,0-4.44-2.24-6.94-6.69-7.69-1.49-.25-2.86-1.21-4.28-1.84l.33-1.41,24.08-3.5c-.59,5.37-1.08,9.86-1.55,14.23,5.61-4,10.54-8.53,16.27-11.46,15-7.68,27.34,1.79,27.37,16.43,0,13.13,0,26.27,0,40.26a49.73,49.73,0,0,1,5.72,2.19,31.28,31.28,0,0,1,4.25,3.06l-.67,1.26H1090c.71-5.74,6.82-3.5,9.5-7.3,0-11.72.38-24.17-.21-36.58-.21-4.28-.84-9.52-6.31-11.6-6.3-2.4-12.07-.66-17,2.93a18.46,18.46,0,0,0-8.08,16.14C1068.2,205.33,1068,215.07,1068,224.7Z"/><path class="cls-1" d="M785.36,219.84c-5.88,3.81-10.65,7.5-15.93,10.23-16.06,8.32-27.94-2.75-27.71-16.59.17-10.19.06-20.38,0-30.56,0-7.55-.07-7.49-7.64-10.22-.88-.31-1.39-1.67-2.35-2.92L753.34,166c.16,2.52.37,4.48.38,6.45,0,11.77-.12,23.54.1,35.31a34.81,34.81,0,0,0,1.8,9.76c1.18,3.7,4,5.64,8,6a19.87,19.87,0,0,0,21.63-19.59c0-7.25.05-14.49,0-21.73-.06-6.77-.53-7.24-7-9.39-1.07-.35-1.88-1.49-3.48-2.82,7.44-1.36,13.54-2.5,19.66-3.58a13.62,13.62,0,0,1,2.86.31v9.9q0,19,0,38c0,9.47.3,9.86,11,13-7.85,4.21-15.2,3.95-22.88,5.29Z"/><path class="cls-1" d="M687.3,264c-3.32-1.53-2.56-2.91-.82-5.2,3.75-4.93,7.73-9.91,10.26-15.49a42.88,42.88,0,0,0,4-16.58c.4-26.71.19-53.43.18-80.14,0-7-.17-7.43-7.15-8.91-2.89-.62-5.53-.67-4.68-5.44,3.44.48,6.89,1.42,10.32,1.36,7.37-.13,14.75-.69,22.11-1.23,3.91-.28,3.87,1.76,3.26,4.89-1.26.09-2.36.1-3.43.27-5.93,1-7.07,2.25-7.08,8.36,0,24,.32,48-.2,72a79.27,79.27,0,0,1-4.2,22.1c-2.78,8.68-10.53,13.8-16.87,19.81A57.15,57.15,0,0,1,687.3,264Z"/><path class="cls-1" d="M1225.18,337.38c-1.46-6.36,1-10.37,5.84-13.8,8.82-6.19,18.13-9.45,29-6.89,7.69,1.82,13,6.24,13.36,18.25.28,9.72.05,19.46.06,29.2,0,10.25.72,11.14,10.57,13.49.36.08.61.64.91,1-7.08,7.72-16.18,5.08-22.85-6.64a26.24,26.24,0,0,1-32.14,8.27c-11.18-4.94-10.17-19.8-1.11-26.71,3.62-2.75,8.12-4.53,12.45-6.1,3.92-1.43,8.17-2,12.28-2.91,7.47-1.71,7.79-2,7.9-7.62.16-8-3.77-14.36-9.76-15.68-5-1.11-10.73,1-12.15,5.93C1237.39,334.46,1232.22,336.35,1225.18,337.38Zm35.86,8.77c-6.82,2.12-13.34,3.32-19,6.15s-8.52,10.93-6.16,16.23c1.58,3.56,3.58,7.13,8.58,7.36,6.38.29,11.3-1.43,14.43-7.43C1262.37,361.7,1261.45,354.68,1261,346.15Z"/><path class="cls-1" d="M1037.77,229.09c-8.57,7.26-16.91,4.8-23.16-6.61-3.7,4-6.71,8.94-13.11,9-5.24,0-10.51.44-15.7,0a11.91,11.91,0,0,1-11.24-10c-1.41-7.11.91-13.62,7-17.77,3.92-2.7,8.65-4.33,13.18-6a91.77,91.77,0,0,1,10.94-2.79c8.14-1.89,8.25-2,8.19-8.71-.08-7.65-4.18-13.56-10.16-14.64-5.54-1-11,1.28-12.33,6.84-1.83,7.78-7.86,7.79-13.31,9.44-2.64-4.88-.52-9.23,2.54-11.75,9-7.46,19.44-12.15,31.58-9.11,9.44,2.36,13.55,8.12,13.64,18s0,19.92,0,29.88.54,10.5,10.35,13C1036.75,228,1037.22,228.65,1037.77,229.09Zm-24.12-32.62c-6.92,2.06-13.27,3.22-18.94,5.85-6,2.79-8.83,11.22-6.36,16.76,1.62,3.63,3.67,7,8.7,7.18,6.41.22,11.15-1.63,14.29-7.65C1014.89,211.79,1013.64,204.8,1013.65,196.47Z"/><path class="cls-1" d="M821.12,188c-1.34-6.74,1-10.77,6-14.13,7.45-5,15.2-8.48,24.41-7.51,11.69,1.24,17,6.27,17.69,17.81.62,10.37.12,20.81.14,31.23,0,9.23,1.07,10.48,10.13,12.43.57.13,1,.83,1.51,1.27-7.66,7.42-16.54,4.89-22.87-6.72-7.2,10.44-17.22,11.85-28.61,9.34-6.06-1.34-10.42-4.53-11.46-10.68-1.21-7.19,1.11-13.72,7.4-17.54,5-3,10.82-4.85,16.38-6.92,2.47-.91,5.21-1.08,7.81-1.68,7.44-1.71,7.75-2.07,7.72-8.46,0-7.37-3.69-13.17-9.28-14.71-5.13-1.41-11.17.75-12.68,6C833.28,185.08,827.82,186.51,821.12,188Zm36.22,8.54c-7,2-13.18,3.12-18.75,5.55-6.14,2.68-9.15,11.48-6.55,17.23,1.67,3.69,3.85,6.81,8.82,7,6.21.23,10.78-1.75,13.89-7.27C858.53,212.31,857.15,205.19,857.34,196.5Z"/><path class="cls-1" d="M1498.84,229.4c-9.12,6.74-16.64,4.4-23.26-7.05a26.25,26.25,0,0,1-32.14,8.23c-11.17-5-10.12-19.81-1-26.71,3.61-2.75,8.11-4.52,12.45-6.09,3.93-1.42,8.17-2,12.28-2.91,7.43-1.7,7.77-2,7.87-7.64.16-8.06-3.78-14.35-9.79-15.65-5-1.1-10.71,1-12.13,6-2.1,7.34-7.36,9.1-13.82,10.22-2.76-4.86-.57-9.36,2.7-11.89,9.37-7.25,19.68-12.42,32.19-8.41,9,2.9,12.7,7.67,12.81,17.19.11,10,0,19.92,0,29.88,0,10.23.66,11.05,10.59,13.48C1497.93,228.1,1498.18,228.65,1498.84,229.4Zm-23.94-32.85c-6.86,1.94-13,3.06-18.57,5.43-6.12,2.59-9.33,11.43-6.76,17.17,1.63,3.66,3.71,7,8.74,7.12,6.45.2,11.13-1.74,14.25-7.73C1476,211.94,1474.78,205.1,1474.9,196.55Z"/><path class="cls-1" d="M959.15,349.55c.47,17.1-15.71,33.22-33.61,32.93-18.65-.3-33-14.19-32.9-33.71.08-17.1,15.82-33.21,33.72-32.93C945,316.14,959.74,330,959.15,349.55Zm-13.25,6.64c-.16-10.7-2.3-19.3-7-27-3.69-6-9.53-8.65-16.61-8-6.22.57-11.07,3.33-13.4,9.44-5.49,14.44-3.41,28,5.53,40.33,4.67,6.43,14.17,8.08,21.2,4.56C944.29,371.14,945.29,363,945.9,356.19Z"/><path class="cls-1" d="M1016.55,348.91c-.55-17.22,15.7-33.29,33.47-33.07,18.81.23,33.06,14.23,33,33.57,0,17.22-15.82,33.29-33.58,33.07C1030.66,382.24,1016,368.25,1016.55,348.91Zm12.52-4.62c1.07,9.21,2.38,18,8,25.39,4.19,5.58,9.94,8.34,17,7.44,6.44-.82,11-4.15,13.31-10.54,5.11-14.24,2.19-27.57-6.19-39.17-8.15-11.28-26.28-6.89-28.79,4.15C1031.37,335.83,1030.16,340.05,1029.07,344.29Z"/><path class="cls-1" d="M1373.33,316c19.26-.51,33.31,14.12,33.51,33,.18,17.72-15.86,33.54-33.14,33.53-19.24,0-33.31-14.23-33.51-33.11C1340,331.65,1356.05,315.39,1373.33,316Zm-20.53,28.43c1.2,9,2.33,17.46,7.7,24.83,4.34,6,10.13,8.75,17.39,7.89,6.79-.8,11.53-4.61,13.61-11.18,4.42-14,1.74-27.23-6.67-38.61-8.17-11.06-25.75-6.78-28.51,3.72Q1354.55,337.72,1352.8,344.39Z"/><path class="cls-1" d="M1274.16,166.32c19.13-.47,33.24,14.15,33.37,33.13.11,17.57-15.85,33.45-33.27,33.39-19.12-.07-33.25-14.26-33.37-33.25C1240.77,182,1256.74,165.68,1274.16,166.32Zm-20.67,27.91c.89,9.52,2.58,18.37,8.14,26.06,8.1,11.19,24.51,9.61,29.8-3.08,6-14.29,2.59-27.9-6-39.64-8.11-11-25.85-6.56-28.44,4C1255.91,185.81,1254.65,190,1253.49,194.23Z"/><path class="cls-1" d="M1302.23,324.1l-9.09-.43c-.83-3.26.36-4.83,3.48-5,4.72-.2,6-2.81,5.66-7.15-.6-8.37.33-16.45,4.51-24.05a24.29,24.29,0,0,1,28-11.56c4.21,1.3,8.64,2.16,11.57,6.1,2.35,3.16,1.92,5.93-1.58,7.53-4,1.83-7.32,1-9.95-3.15-2-3.14-4.13-5.7-8.16-6.1-7-.7-11.92,3.8-12.4,12.46-.44,7.87-.1,15.78-.1,24.4h17.09c1.16,4.6.09,6.79-4.31,6.69-4-.08-8,0-12.79,0v23.57c0,6.34,0,12.69,0,19,0,8.46.89,9.47,9.17,10.73,4.29.66,5.46,1.38,6.91,4.27h-37.17l-.12-1.1c.87-.63,1.66-1.65,2.62-1.83,6.31-1.2,6.86-5.38,6.72-10.88C1302,353.39,1302.23,339.14,1302.23,324.1Z"/><path class="cls-1" d="M1418.21,185.69c-1.44-1.89-3.32-3.59-4.24-5.72-3.84-8.83-15-11.58-22-5.19-4.5,4.13-4,10.38,1.5,13.29a135.21,135.21,0,0,0,12.86,5.47c2.47,1,5.13,1.58,7.46,2.82,8.24,4.4,12,11.65,10.54,19.78-1.63,9-8.72,15.48-18.65,16.49-7.88.81-15.62-.47-23.21-2.71-3-.87-4.26-2.44-4.17-5.78.1-3.95-.64-7.93-1-12.35,3.49-1,5.43-.79,6.49,3.71,2.5,10.65,11.8,13.37,20.92,11.71,4.15-.76,7.48-5.08,7.71-9.18.26-4.46-1.62-7.92-5.68-9.8-5.24-2.41-10.63-4.48-15.92-6.77-10.74-4.67-12-11.89-10.78-20,1.28-8.49,8.87-14.46,17.49-14.91,5.84-.3,11.83,1.43,17.69,2.59,4.23.84,5.66,3.84,5.2,8.05a65.38,65.38,0,0,0,0,7.41Z"/><path class="cls-1" d="M1320.39,228.22c-.59-6-1.08-11.1-1.61-16.58,3.26-.64,5.5-.82,6.39,3.44,2.33,11.11,11.89,13.57,20.58,12.26,4.1-.62,7.71-4.83,8.11-8.88.44-4.45-1.34-8.15-5.27-10.09-5.37-2.63-11.08-4.55-16.55-7-10.59-4.72-11.87-11.95-10.51-20.14,1.4-8.5,9.14-14.17,17.7-14.74a47.33,47.33,0,0,1,15.24,1.68c7.64,2,8.46,4.75,6.73,16.62-4.3,1-4.73-2.62-5.78-5.07-3.57-8.37-14.81-11.19-21.63-5.25-4.89,4.26-4.43,10.72,1.43,13.64,5.34,2.67,11.1,4.49,16.61,6.81,4.51,1.9,8.93,3.85,11.52,8.54,7,12.71-.5,27.18-15.75,29.07A48.5,48.5,0,0,1,1320.39,228.22Z"/><path class="cls-1" d="M1203.68,381.67h-37.75c2.7-2.09,4-3.9,5.73-4.29,4.49-1.06,5.5-3.87,5.46-8-.13-12,0-24-.06-36,0-7.33-1.19-8.7-8.26-10.94-1.09-.35-2-1.38-3.85-2.75l23.84-3.75v13.14c3.27-3.17,5.08-5.48,7.39-7,3.46-2.29,7.1-4.65,11-5.87,5.17-1.61,8.68.71,12.11,7.23l-10.69,7.7c-1.35-1.13-2.3-2-3.34-2.8-4-3.05-9.87-2.25-12,2.39a47,47,0,0,0-4.08,14.56c-.68,7.19-.2,14.49-.17,21.74,0,6.65,1.62,8.51,8.1,10.21a68.46,68.46,0,0,1,7.18,2.7Z"/><path class="cls-1" d="M1513.09,174.57l-10.08-.74c1.35-1.51,2.11-3.13,3-3.18,6.2-.4,8.53-5.09,11.12-9.54,1.94-3.35,3.86-6.72,5.78-10.08l1.74.51v15.79h17.29c1.65,5,.19,7-4.37,6.9-3.82-.08-7.65,0-12.47,0v10.26c0,10,.12,19.93-.06,29.89-.08,4.54.51,9,4.65,11.16,4,2.06,7.71,0,10.93-3,.86-.79,2.82-.4,4.27-.56l.69,1.85c-4.49,2.7-8.69,6.19-13.53,7.95-10.6,3.86-18.82-2.32-18.91-13.65-.1-12.23,0-24.46,0-36.68Z"/><path class="cls-1" d="M978.46,324.11l-9.71-.5c1-1.4,1.54-3.09,2.28-3.16,6.64-.65,9.18-5.52,11.78-10.62,1.62-3.19,3.78-6.11,5.7-9.15l1.74.63v15.85h17.33c1.07,4.54.12,6.8-4.31,6.71-4-.08-8,0-12.83,0V348c0,6.12-.53,12.3.22,18.32.39,3.18,2.29,7.33,4.8,8.73,2.08,1.17,6.08-.94,9.17-1.83,1.67-.48,3.21-1.44,5.22-1.47-3.65,5.8-8.58,9.65-15.27,10.53-8.84,1.16-15.4-2.23-16-14.17-.62-12.42-.14-24.9-.14-37.35Z"/><path class="cls-1" d="M1551.68,169.46l23-3.26v59.66c1.3,2.87,8.15.25,8.84,6.12h-30.8c.17-5.9,7.07-3.17,9.3-8.3,0-13.32,0-28.25,0-43.18,0-4.43-2.2-7-6.68-7.7-1.49-.24-2.86-1.2-4.29-1.83C1551.27,170.46,1551.47,170,1551.68,169.46Z"/><path class="cls-1" d="M1040.24,305.35c.18-1.25,0-2.7.6-3.7,3.89-6.69,7.78-13.39,12-19.86,2.15-3.29,5.53-3.18,8.55-.3s3.37,6,.23,8.58c-6.57,5.44-13.42,10.54-20.15,15.79Z"/><path class="cls-1" d="M1576.75,141a8.7,8.7,0,1,1-8.85-8.72A8.33,8.33,0,0,1,1576.75,141Z"/></g></g></svg>